ffmpeg started on 2016-12-12 at 04:22:34
Report written to "Output/theora/results/ffmpeg/sintel4000k.log"
Command line:
Tools/ffmpeg/ffmpeg -benchmark -y -i Input/y4m/sintel.y4m -c:v libtheora -b:v 4000k -an Output/theora/encoded/sintel4000k.mkv
ffmpeg version N-82227-gdb23fde Copyright (c) 2000-2016 the FFmpeg developers
  built with gcc 5.4.0 (Ubuntu 5.4.0-6ubuntu1~16.04.2) 20160609
  configuration: --prefix=/home/jaroslav/ffmpeg_build --pkg-config-flags=--static --extra-cflags=-I/home/jaroslav/ffmpeg_build/include --extra-ldflags=-L/home/jaroslav/ffmpeg_build/lib --bindir=/home/jaroslav/bin --enable-gpl --enable-libass --enable-libfdk-aac --enable-libfreetype --enable-libmp3lame --enable-libopus --enable-libtheora --enable-libvorbis --enable-libvpx --enable-libx264 --enable-libx265 --enable-nvenc --enable-libmfx --enable-libxvid --enable-libgsm --enable-libopencore-amrnb --enable-version3 --enable-nonfree
  libavutil      55. 35.100 / 55. 35.100
  libavcodec     57. 66.101 / 57. 66.101
  libavformat    57. 57.100 / 57. 57.100
  libavdevice    57.  2.100 / 57.  2.100
  libavfilter     6. 66.100 /  6. 66.100
  libswscale      4.  3.100 /  4.  3.100
  libswresample   2.  4.100 /  2.  4.100
  libpostproc    54.  2.100 / 54.  2.100
Input #0, yuv4mpegpipe, from 'Input/y4m/sintel.y4m':
  Duration: 00:00:20.83, start: 0.000000, bitrate: 2057307 kb/s
    Stream #0:0: Video: rawvideo (I420 / 0x30323449), yuv420p(progressive), 4096x1744, SAR 1:1 DAR 256:109, 24 fps, 24 tbr, 24 tbn, 24 tbc
Output #0, matroska, to 'Output/theora/encoded/sintel4000k.mkv':
  Metadata:
    encoder         : Lavf57.57.100
    Stream #0:0: Video: theora (libtheora) (theo / 0x6F656874), yuv420p, 4096x1744 [SAR 1:1 DAR 256:109], q=2-31, 4000 kb/s, 24 fps, 1k tbn, 24 tbc
    Metadata:
      encoder         : Lavc57.66.101 libtheora
Stream mapping:
  Stream #0:0 -> #0:0 (rawvideo (native) -> theora (libtheora))
Press [q] to stop, [?] for help
frame=    3 fps=0.0 q=-0.0 size=       4kB time=00:00:00.08 bitrate= 380.5kbits/s speed=0.132x    frame=    5 fps=4.1 q=-0.0 size=       4kB time=00:00:00.16 bitrate= 190.2kbits/s speed=0.137x    frame=    7 fps=3.8 q=-0.0 size=       4kB time=00:00:00.25 bitrate= 127.3kbits/s speed=0.138x    frame=    9 fps=3.7 q=-0.0 size=       4kB time=00:00:00.33 bitrate=  95.7kbits/s speed=0.138x    frame=   11 fps=3.6 q=-0.0 size=       4kB time=00:00:00.41 bitrate=  76.5kbits/s speed=0.138x    frame=   13 fps=3.6 q=-0.0 size=     389kB time=00:00:00.50 bitrate=6356.0kbits/s speed=0.137x    frame=   16 fps=3.6 q=-0.0 size=     389kB time=00:00:00.62 bitrate=5086.8kbits/s speed=0.142x    frame=   18 fps=2.2 q=-0.0 size=     389kB time=00:00:00.70 bitrate=4491.3kbits/s speed=0.0858x    frame=   19 fps=1.6 q=-0.0 size=     389kB time=00:00:00.75 bitrate=4240.1kbits/s speed=0.0628x    frame=   20 fps=1.3 q=-0.0 size=     389kB time=00:00:00.79 bitrate=4015.6kbits/s speed=0.0523x    frame=   22 fps=1.4 q=-0.0 size=     389kB time=00:00:00.87 bitrate=3635.1kbits/s speed=0.0555x    frame=   24 fps=1.5 q=-0.0 size=     389kB time=00:00:00.95 bitrate=3320.5kbits/s speed=0.0584x    frame=   27 fps=1.6 q=-0.0 size=     862kB time=00:00:01.08 bitrate=6513.3kbits/s speed=0.0631x    frame=   29 fps=1.6 q=-0.0 size=     862kB time=00:00:01.16 bitrate=6044.9kbits/s speed=0.0657x    frame=   31 fps=1.7 q=-0.0 size=     862kB time=00:00:01.25 bitrate=5643.8kbits/s speed=0.068x    frame=   33 fps=1.7 q=-0.0 size=     862kB time=00:00:01.33 bitrate=5292.7kbits/s speed=0.0702x    frame=   35 fps=1.8 q=-0.0 size=     862kB time=00:00:01.41 bitrate=4979.1kbits/s speed=0.0723x    frame=   37 fps=1.8 q=-0.0 size=    1251kB time=00:00:01.50 bitrate=6828.7kbits/s speed=0.0742x    frame=   40 fps=1.9 q=-0.0 size=    1251kB time=00:00:01.62 bitrate=6303.7kbits/s speed=0.0775x    frame=   42 fps=1.9 q=-0.0 size=    1251kB time=00:00:01.70 bitrate=5997.6kbits/s speed=0.0792x    frame=   44 fps=2.0 q=-0.0 size=    1251kB time=00:00:01.79 bitrate=5716.6kbits/s speed=0.0808x    frame=   46 fps=2.0 q=-0.0 size=    1251kB time=00:00:01.87 bitrate=5463.7kbits/s speed=0.0823x    frame=   48 fps=2.1 q=-0.0 size=    1251kB time=00:00:01.95 bitrate=5232.2kbits/s speed=0.0837x    frame=   51 fps=2.1 q=-0.0 size=    1611kB time=00:00:02.08 bitrate=6333.1kbits/s speed=0.0864x    frame=   53 fps=2.1 q=-0.0 size=    1611kB time=00:00:02.16 bitrate=6087.8kbits/s speed=0.0876x    frame=   55 fps=2.2 q=-0.0 size=    1611kB time=00:00:02.25 bitrate=5863.3kbits/s speed=0.0887x    frame=   57 fps=2.2 q=-0.0 size=    1611kB time=00:00:02.33 bitrate=5654.8kbits/s speed=0.0898x    frame=   59 fps=2.2 q=-0.0 size=    1932kB time=00:00:02.41 bitrate=6544.3kbits/s speed=0.0906x    frame=   61 fps=2.2 q=-0.0 size=    1932kB time=00:00:02.50 bitrate=6327.1kbits/s speed=0.0916x    frame=   63 fps=2.3 q=-0.0 size=    1932kB time=00:00:02.58 bitrate=6123.9kbits/s speed=0.0926x    frame=   65 fps=2.3 q=-0.0 size=    1932kB time=00:00:02.66 bitrate=5931.1kbits/s speed=0.0935x    frame=   67 fps=2.3 q=-0.0 size=    2239kB time=00:00:02.75 bitrate=6667.4kbits/s speed=0.094x    frame=   69 fps=2.3 q=-0.0 size=    2296kB time=00:00:02.83 bitrate=6638.0kbits/s speed=0.0947x    frame=   71 fps=2.3 q=-0.0 size=    2381kB time=00:00:02.91 bitrate=6684.2kbits/s speed=0.0953x    frame=   73 fps=2.3 q=-0.0 size=    2438kB time=00:00:03.00 bitrate=6656.5kbits/s speed=0.096x    frame=   75 fps=2.3 q=-0.0 size=    2438kB time=00:00:03.08 bitrate=6477.3kbits/s speed=0.0963x    frame=   77 fps=2.4 q=-0.0 size=    2492kB time=00:00:03.16 bitrate=6443.1kbits/s speed=0.0969x    frame=   79 fps=2.4 q=-0.0 size=    2567kB time=00:00:03.25 bitrate=6469.0kbits/s speed=0.0974x    frame=   81 fps=2.4 q=-0.0 size=    2567kB time=00:00:03.33 bitrate=6308.0kbits/s speed=0.0977x    frame=   83 fps=2.4 q=-0.0 size=    2649kB time=00:00:03.41 bitrate=6349.7kbits/s speed=0.0983x    frame=   85 fps=2.4 q=-0.0 size=    2680kB time=00:00:03.50 bitrate=6270.3kbits/s speed=0.0985x    frame=   87 fps=2.4 q=-0.0 size=    2708kB time=00:00:03.58 bitrate=6190.6kbits/s speed=0.0988x    frame=   89 fps=2.4 q=-0.0 size=    2768kB time=00:00:03.66 bitrate=6181.0kbits/s speed=0.0991x    frame=   91 fps=2.4 q=-0.0 size=    2800kB time=00:00:03.75 bitrate=6114.3kbits/s speed=0.0993x    frame=   93 fps=2.4 q=-0.0 size=    2833kB time=00:00:03.83 bitrate=6052.8kbits/s speed=0.0997x    frame=   95 fps=2.4 q=-0.0 size=    2867kB time=00:00:03.91 bitrate=5993.5kbits/s speed= 0.1x    frame=   97 fps=2.4 q=-0.0 size=    2867kB time=00:00:04.00 bitrate=5869.2kbits/s speed=0.101x    frame=   99 fps=2.4 q=-0.0 size=    2930kB time=00:00:04.08 bitrate=5877.0kbits/s speed=0.101x    frame=  101 fps=2.5 q=-0.0 size=    2994kB time=00:00:04.16 bitrate=5885.5kbits/s speed=0.101x    frame=  103 fps=2.5 q=-0.0 size=    2994kB time=00:00:04.25 bitrate=5770.6kbits/s speed=0.102x    frame=  105 fps=2.5 q=-0.0 size=    2994kB time=00:00:04.33 bitrate=5660.1kbits/s speed=0.102x    frame=  107 fps=2.5 q=-0.0 size=    3092kB time=00:00:04.41 bitrate=5732.6kbits/s speed=0.103x    frame=  109 fps=2.5 q=-0.0 size=    3092kB time=00:00:04.50 bitrate=5626.9kbits/s speed=0.103x    frame=  111 fps=2.5 q=-0.0 size=    3092kB time=00:00:04.58 bitrate=5525.0kbits/s speed=0.104x    frame=  113 fps=2.5 q=-0.0 size=    3214kB time=00:00:04.66 bitrate=5639.7kbits/s speed=0.104x    frame=  115 fps=2.5 q=-0.0 size=    3214kB time=00:00:04.75 bitrate=5541.1kbits/s speed=0.104x    frame=  117 fps=2.5 q=-0.0 size=    3298kB time=00:00:04.83 bitrate=5588.8kbits/s speed=0.105x    frame=  119 fps=2.5 q=-0.0 size=    3298kB time=00:00:04.91 bitrate=5493.4kbits/s speed=0.105x    frame=  121 fps=2.6 q=-0.0 size=    3298kB time=00:00:05.00 bitrate=5402.2kbits/s speed=0.106x    frame=  123 fps=2.6 q=-0.0 size=    3298kB time=00:00:05.08 bitrate=5314.0kbits/s speed=0.106x    frame=  125 fps=2.6 q=-0.0 size=    3298kB time=00:00:05.16 bitrate=5227.6kbits/s speed=0.106x    frame=  127 fps=2.6 q=-0.0 size=    3493kB time=00:00:05.25 bitrate=5449.6kbits/s speed=0.106x    frame=  129 fps=2.6 q=-0.0 size=    3539kB time=00:00:05.33 bitrate=5435.2kbits/s speed=0.107x    frame=  131 fps=2.6 q=-0.0 size=    3584kB time=00:00:05.41 bitrate=5419.2kbits/s speed=0.107x    frame=  133 fps=2.6 q=-0.0 size=    3637kB time=00:00:05.50 bitrate=5415.6kbits/s speed=0.107x    frame=  135 fps=2.6 q=-0.0 size=    3692kB time=00:00:05.58 bitrate=5416.6kbits/s speed=0.107x    frame=  137 fps=2.6 q=-0.0 size=    3692kB time=00:00:05.66 bitrate=5336.4kbits/s speed=0.107x    frame=  139 fps=2.6 q=-0.0 size=    3747kB time=00:00:05.75 bitrate=5337.9kbits/s speed=0.107x    frame=  141 fps=2.6 q=-0.0 size=    3747kB time=00:00:05.83 bitrate=5261.9kbits/s speed=0.107x    frame=  143 fps=2.6 q=-0.0 size=    3747kB time=00:00:05.91 bitrate=5187.2kbits/s speed=0.108x    frame=  145 fps=2.6 q=-0.0 size=    3747kB time=00:00:06.00 bitrate=5115.5kbits/s speed=0.108x    frame=  147 fps=2.6 q=-0.0 size=    3747kB time=00:00:06.08 bitrate=5045.7kbits/s speed=0.108x    frame=  149 fps=2.6 q=-0.0 size=    3747kB time=00:00:06.16 bitrate=4977.0kbits/s speed=0.108x    frame=  151 fps=2.6 q=-0.0 size=    3989kB time=00:00:06.25 bitrate=5227.9kbits/s speed=0.109x    frame=  154 fps=2.6 q=-0.0 size=    3989kB time=00:00:06.37 bitrate=5125.4kbits/s speed=0.109x    frame=  156 fps=2.7 q=-0.0 size=    3989kB time=00:00:06.45 bitrate=5059.5kbits/s speed=0.11x    frame=  158 fps=2.7 q=-0.0 size=    4152kB time=00:00:06.54 bitrate=5198.0kbits/s speed=0.11x    frame=  160 fps=2.7 q=-0.0 size=    4152kB time=00:00:06.62 bitrate=5132.9kbits/s speed=0.11x    frame=  162 fps=2.7 q=-0.0 size=    4210kB time=00:00:06.70 bitrate=5140.2kbits/s speed=0.11x    frame=  164 fps=2.7 q=-0.0 size=    4271kB time=00:00:06.79 bitrate=5150.3kbits/s speed=0.11x    frame=  166 fps=2.7 q=-0.0 size=    4271kB time=00:00:06.87 bitrate=5088.2kbits/s speed=0.111x    frame=  168 fps=2.7 q=-0.0 size=    4371kB time=00:00:06.95 bitrate=5145.4kbits/s speed=0.111x    frame=  170 fps=2.7 q=-0.0 size=    4406kB time=00:00:07.04 bitrate=5124.9kbits/s speed=0.111x    frame=  172 fps=2.7 q=-0.0 size=    4441kB time=00:00:07.12 bitrate=5105.1kbits/s speed=0.111x    frame=  174 fps=2.7 q=-0.0 size=    4475kB time=00:00:07.20 bitrate=5085.0kbits/s speed=0.111x    frame=  176 fps=2.7 q=-0.0 size=    4510kB time=00:00:07.29 bitrate=5065.6kbits/s speed=0.111x    frame=  178 fps=2.7 q=-0.0 size=    4544kB time=00:00:07.37 bitrate=5046.4kbits/s speed=0.111x    frame=  180 fps=2.7 q=-0.0 size=    4576kB time=00:00:07.45 bitrate=5025.9kbits/s speed=0.111x    frame=  182 fps=2.7 q=-0.0 size=    4638kB time=00:00:07.54 bitrate=5037.4kbits/s speed=0.111x    frame=  184 fps=2.7 q=-0.0 size=    4638kB time=00:00:07.62 bitrate=4982.6kbits/s speed=0.111x    frame=  186 fps=2.7 q=-0.0 size=    4638kB time=00:00:07.70 bitrate=4929.0kbits/s speed=0.111x    frame=  188 fps=2.7 q=-0.0 size=    4638kB time=00:00:07.79 bitrate=4875.8kbits/s speed=0.112x    frame=  190 fps=2.7 q=-0.0 size=    4638kB time=00:00:07.87 bitrate=4824.5kbits/s speed=0.112x    frame=  192 fps=2.7 q=-0.0 size=    4638kB time=00:00:07.95 bitrate=4774.1kbits/s speed=0.112x    frame=  194 fps=2.7 q=-0.0 size=    4862kB time=00:00:08.04 bitrate=4951.7kbits/s speed=0.112x    frame=  196 fps=2.7 q=-0.0 size=    4923kB time=00:00:08.12 bitrate=4962.8kbits/s speed=0.112x    frame=  198 fps=2.7 q=-0.0 size=    4954kB time=00:00:08.20 bitrate=4943.9kbits/s speed=0.112x    frame=  200 fps=2.7 q=-0.0 size=    4986kB time=00:00:08.29 bitrate=4924.8kbits/s speed=0.113x    frame=  202 fps=2.7 q=-0.0 size=    5055kB time=00:00:08.37 bitrate=4944.1kbits/s speed=0.113x    frame=  204 fps=2.7 q=-0.0 size=    5055kB time=00:00:08.45 bitrate=4895.6kbits/s speed=0.113x    frame=  206 fps=2.7 q=-0.0 size=    5130kB time=00:00:08.54 bitrate=4919.5kbits/s speed=0.113x    frame=  208 fps=2.7 q=-0.0 size=    5169kB time=00:00:08.62 bitrate=4908.5kbits/s speed=0.113x    frame=  210 fps=2.7 q=-0.0 size=    5209kB time=00:00:08.70 bitrate=4899.5kbits/s speed=0.113x    frame=  212 fps=2.7 q=-0.0 size=    5209kB time=00:00:08.79 bitrate=4852.7kbits/s speed=0.113x    frame=  214 fps=2.7 q=-0.0 size=    5209kB time=00:00:08.87 bitrate=4807.3kbits/s speed=0.113x    frame=  216 fps=2.7 q=-0.0 size=    5209kB time=00:00:08.95 bitrate=4762.8kbits/s speed=0.113x    frame=  218 fps=2.7 q=-0.0 size=    5209kB time=00:00:09.04 bitrate=4718.6kbits/s speed=0.114x    frame=  220 fps=2.7 q=-0.0 size=    5209kB time=00:00:09.12 bitrate=4675.6kbits/s speed=0.114x    frame=  222 fps=2.7 q=-0.0 size=    5456kB time=00:00:09.20 bitrate=4853.5kbits/s speed=0.114x    frame=  225 fps=2.8 q=-0.0 size=    5456kB time=00:00:09.33 bitrate=4788.5kbits/s speed=0.114x    frame=  227 fps=2.8 q=-0.0 size=    5456kB time=00:00:09.41 bitrate=4745.8kbits/s speed=0.115x    frame=  229 fps=2.8 q=-0.0 size=    5456kB time=00:00:09.50 bitrate=4704.3kbits/s speed=0.115x    frame=  231 fps=2.8 q=-0.0 size=    5456kB time=00:00:09.58 bitrate=4663.6kbits/s speed=0.115x    frame=  233 fps=2.8 q=-0.0 size=    5456kB time=00:00:09.66 bitrate=4623.1kbits/s speed=0.115x    frame=  236 fps=2.8 q=-0.0 size=    5697kB time=00:00:09.79 bitrate=4765.9kbits/s speed=0.116x    frame=  238 fps=2.8 q=-0.0 size=    5697kB time=00:00:09.87 bitrate=4725.9kbits/s speed=0.116x    frame=  240 fps=2.8 q=-0.0 size=    5697kB time=00:00:09.95 bitrate=4686.5kbits/s speed=0.116x    frame=  242 fps=2.8 q=-0.0 size=    5697kB time=00:00:10.04 bitrate=4647.3kbits/s speed=0.116x    frame=  244 fps=2.8 q=-0.0 size=    5886kB time=00:00:10.12 bitrate=4761.9kbits/s speed=0.116x    frame=  246 fps=2.8 q=-0.0 size=    5886kB time=00:00:10.20 bitrate=4723.2kbits/s speed=0.116x    frame=  248 fps=2.8 q=-0.0 size=    5886kB time=00:00:10.29 bitrate=4684.7kbits/s speed=0.116x    frame=  250 fps=2.8 q=-0.0 size=    5886kB time=00:00:10.37 bitrate=4647.2kbits/s speed=0.116x    frame=  252 fps=2.8 q=-0.0 size=    5886kB time=00:00:10.45 bitrate=4610.3kbits/s speed=0.117x    frame=  254 fps=2.8 q=-0.0 size=    5886kB time=00:00:10.54 bitrate=4573.6kbits/s speed=0.117x    frame=  256 fps=2.8 q=-0.0 size=    6136kB time=00:00:10.62 bitrate=4730.4kbits/s speed=0.117x    frame=  259 fps=2.8 q=-0.0 size=    6136kB time=00:00:10.75 bitrate=4675.4kbits/s speed=0.117x    frame=  261 fps=2.8 q=-0.0 size=    6136kB time=00:00:10.83 bitrate=4639.5kbits/s speed=0.117x    frame=  263 fps=2.8 q=-0.0 size=    6136kB time=00:00:10.91 bitrate=4603.9kbits/s speed=0.118x    frame=  265 fps=2.8 q=-0.0 size=    6136kB time=00:00:11.00 bitrate=4569.1kbits/s speed=0.118x    frame=  267 fps=2.8 q=-0.0 size=    6136kB time=00:00:11.08 bitrate=4534.9kbits/s speed=0.118x    frame=  270 fps=2.8 q=-0.0 size=    6373kB time=00:00:11.20 bitrate=4657.7kbits/s speed=0.118x    frame=  272 fps=2.9 q=-0.0 size=    6373kB time=00:00:11.29 bitrate=4623.1kbits/s speed=0.118x    frame=  274 fps=2.9 q=-0.0 size=    6373kB time=00:00:11.37 bitrate=4589.3kbits/s speed=0.119x    frame=  276 fps=2.9 q=-0.0 size=    6373kB time=00:00:11.45 bitrate=4556.1kbits/s speed=0.119x    frame=  278 fps=2.9 q=-0.0 size=    6373kB time=00:00:11.54 bitrate=4523.0kbits/s speed=0.119x    frame=  280 fps=2.9 q=-0.0 size=    6650kB time=00:00:11.62 bitrate=4686.0kbits/s speed=0.119x    frame=  283 fps=2.9 q=-0.0 size=    6650kB time=00:00:11.75 bitrate=4636.1kbits/s speed=0.119x    frame=  285 fps=2.9 q=-0.0 size=    6650kB time=00:00:11.83 bitrate=4603.6kbits/s speed=0.12x    frame=  287 fps=2.9 q=-0.0 size=    6650kB time=00:00:11.91 bitrate=4571.2kbits/s speed=0.12x    frame=  289 fps=2.9 q=-0.0 size=    6650kB time=00:00:12.00 bitrate=4539.6kbits/s speed=0.12x    frame=  291 fps=2.9 q=-0.0 size=    6650kB time=00:00:12.08 bitrate=4508.4kbits/s speed=0.12x    frame=  294 fps=2.9 q=-0.0 size=    6901kB time=00:00:12.20 bitrate=4630.2kbits/s speed=0.12x    frame=  296 fps=2.9 q=-0.0 size=    6901kB time=00:00:12.29 bitrate=4598.6kbits/s speed=0.12x    frame=  298 fps=2.9 q=-0.0 size=    6901kB time=00:00:12.37 bitrate=4567.8kbits/s speed=0.121x    frame=  300 fps=2.9 q=-0.0 size=    6901kB time=00:00:12.45 bitrate=4537.3kbits/s speed=0.121x    frame=  302 fps=2.9 q=-0.0 size=    6901kB time=00:00:12.54 bitrate=4506.9kbits/s speed=0.121x    frame=  304 fps=2.9 q=-0.0 size=    7121kB time=00:00:12.62 bitrate=4620.3kbits/s speed=0.121x    frame=  307 fps=2.9 q=-0.0 size=    7121kB time=00:00:12.75 bitrate=4575.0kbits/s speed=0.121x    frame=  309 fps=2.9 q=-0.0 size=    7121kB time=00:00:12.83 bitrate=4545.4kbits/s speed=0.122x    frame=  311 fps=2.9 q=-0.0 size=    7121kB time=00:00:12.91 bitrate=4515.9kbits/s speed=0.122x    frame=  313 fps=2.9 q=-0.0 size=    7121kB time=00:00:13.00 bitrate=4487.0kbits/s speed=0.122x    frame=  315 fps=2.9 q=-0.0 size=    7121kB time=00:00:13.08 bitrate=4458.6kbits/s speed=0.122x    frame=  318 fps=2.9 q=-0.0 size=    7324kB time=00:00:13.20 bitrate=4542.4kbits/s speed=0.122x    frame=  320 fps=2.9 q=-0.0 size=    7324kB time=00:00:13.29 bitrate=4513.7kbits/s speed=0.122x    frame=  322 fps=3.0 q=-0.0 size=    7324kB time=00:00:13.37 bitrate=4485.7kbits/s speed=0.123x    frame=  324 fps=3.0 q=-0.0 size=    7324kB time=00:00:13.45 bitrate=4458.0kbits/s speed=0.123x    frame=  326 fps=3.0 q=-0.0 size=    7324kB time=00:00:13.54 bitrate=4430.3kbits/s speed=0.123x    frame=  328 fps=3.0 q=-0.0 size=    7523kB time=00:00:13.62 bitrate=4523.1kbits/s speed=0.123x    frame=  331 fps=3.0 q=-0.0 size=    7523kB time=00:00:13.75 bitrate=4482.0kbits/s speed=0.123x    frame=  333 fps=3.0 q=-0.0 size=    7523kB time=00:00:13.83 bitrate=4455.1kbits/s speed=0.123x    frame=  335 fps=3.0 q=-0.0 size=    7523kB time=00:00:13.91 bitrate=4428.2kbits/s speed=0.123x    frame=  337 fps=3.0 q=-0.0 size=    7523kB time=00:00:14.00 bitrate=4401.9kbits/s speed=0.124x    frame=  339 fps=3.0 q=-0.0 size=    7523kB time=00:00:14.08 bitrate=4376.0kbits/s speed=0.124x    frame=  342 fps=3.0 q=-0.0 size=    7719kB time=00:00:14.20 bitrate=4450.4kbits/s speed=0.124x    frame=  344 fps=3.0 q=-0.0 size=    7719kB time=00:00:14.29 bitrate=4424.3kbits/s speed=0.124x    frame=  346 fps=3.0 q=-0.0 size=    7719kB time=00:00:14.37 bitrate=4398.7kbits/s speed=0.124x    frame=  348 fps=3.0 q=-0.0 size=    7719kB time=00:00:14.45 bitrate=4373.5kbits/s speed=0.124x    frame=  350 fps=3.0 q=-0.0 size=    7719kB time=00:00:14.54 bitrate=4348.2kbits/s speed=0.124x    frame=  352 fps=3.0 q=-0.0 size=    7902kB time=00:00:14.62 bitrate=4425.9kbits/s speed=0.125x    frame=  355 fps=3.0 q=-0.0 size=    7902kB time=00:00:14.75 bitrate=4388.4kbits/s speed=0.125x    frame=  357 fps=3.0 q=-0.0 size=    7902kB time=00:00:14.83 bitrate=4363.8kbits/s speed=0.125x    frame=  359 fps=3.0 q=-0.0 size=    7902kB time=00:00:14.91 bitrate=4339.2kbits/s speed=0.125x    frame=  361 fps=3.0 q=-0.0 size=    7902kB time=00:00:15.00 bitrate=4315.2kbits/s speed=0.125x    frame=  363 fps=3.0 q=-0.0 size=    8086kB time=00:00:15.08 bitrate=4391.4kbits/s speed=0.125x    frame=  365 fps=3.0 q=-0.0 size=    8086kB time=00:00:15.16 bitrate=4367.0kbits/s speed=0.125x    frame=  367 fps=3.0 q=-0.0 size=    8086kB time=00:00:15.25 bitrate=4343.3kbits/s speed=0.125x    frame=  369 fps=3.0 q=-0.0 size=    8086kB time=00:00:15.33 bitrate=4319.8kbits/s speed=0.125x    frame=  371 fps=3.0 q=-0.0 size=    8086kB time=00:00:15.41 bitrate=4296.2kbits/s speed=0.126x    frame=  373 fps=3.0 q=-0.0 size=    8086kB time=00:00:15.50 bitrate=4273.2kbits/s speed=0.126x    frame=  375 fps=3.0 q=-0.0 size=    8286kB time=00:00:15.58 bitrate=4355.9kbits/s speed=0.126x    frame=  378 fps=3.0 q=-0.0 size=    8286kB time=00:00:15.70 bitrate=4321.2kbits/s speed=0.126x    frame=  380 fps=3.0 q=-0.0 size=    8286kB time=00:00:15.79 bitrate=4298.2kbits/s speed=0.126x    frame=  382 fps=3.0 q=-0.0 size=    8286kB time=00:00:15.87 bitrate=4275.7kbits/s speed=0.126x    frame=  384 fps=3.0 q=-0.0 size=    8286kB time=00:00:15.95 bitrate=4253.5kbits/s speed=0.126x    frame=  386 fps=3.0 q=-0.0 size=    8286kB time=00:00:16.04 bitrate=4231.2kbits/s speed=0.126x    frame=  389 fps=3.0 q=-0.0 size=    8469kB time=00:00:16.16 bitrate=4290.9kbits/s speed=0.127x    frame=  391 fps=3.1 q=-0.0 size=    8469kB time=00:00:16.25 bitrate=4269.0kbits/s speed=0.127x    frame=  393 fps=3.1 q=-0.0 size=    8469kB time=00:00:16.33 bitrate=4247.3kbits/s speed=0.127x    frame=  395 fps=3.1 q=-0.0 size=    8469kB time=00:00:16.41 bitrate=4225.6kbits/s speed=0.127x    frame=  397 fps=3.1 q=-0.0 size=    8469kB time=00:00:16.50 bitrate=4204.3kbits/s speed=0.127x    frame=  399 fps=3.1 q=-0.0 size=    8760kB time=00:00:16.58 bitrate=4327.0kbits/s speed=0.127x    frame=  402 fps=3.1 q=-0.0 size=    8760kB time=00:00:16.70 bitrate=4294.7kbits/s speed=0.127x    frame=  404 fps=3.1 q=-0.0 size=    8760kB time=00:00:16.79 bitrate=4273.2kbits/s speed=0.127x    frame=  406 fps=3.1 q=-0.0 size=    8760kB time=00:00:16.87 bitrate=4252.2kbits/s speed=0.127x    frame=  408 fps=3.1 q=-0.0 size=    8760kB time=00:00:16.95 bitrate=4231.3kbits/s speed=0.127x    frame=  410 fps=3.1 q=-0.0 size=    8760kB time=00:00:17.04 bitrate=4210.5kbits/s speed=0.128x    frame=  413 fps=3.1 q=-0.0 size=    9057kB time=00:00:17.16 bitrate=4321.7kbits/s speed=0.128x    frame=  415 fps=3.1 q=-0.0 size=    9057kB time=00:00:17.25 bitrate=4300.9kbits/s speed=0.128x    frame=  417 fps=3.1 q=-0.0 size=    9057kB time=00:00:17.33 bitrate=4280.3kbits/s speed=0.128x    frame=  419 fps=3.1 q=-0.0 size=    9193kB time=00:00:17.41 bitrate=4323.8kbits/s speed=0.128x    frame=  421 fps=3.1 q=-0.0 size=    9193kB time=00:00:17.50 bitrate=4303.3kbits/s speed=0.128x    frame=  423 fps=3.1 q=-0.0 size=    9193kB time=00:00:17.58 bitrate=4283.0kbits/s speed=0.128x    frame=  425 fps=3.1 q=-0.0 size=    9193kB time=00:00:17.66 bitrate=4262.7kbits/s speed=0.128x    frame=  427 fps=3.1 q=-0.0 size=    9193kB time=00:00:17.75 bitrate=4242.7kbits/s speed=0.128x    frame=  429 fps=3.1 q=-0.0 size=    9193kB time=00:00:17.83 bitrate=4223.0kbits/s speed=0.128x    frame=  431 fps=3.1 q=-0.0 size=    9549kB time=00:00:17.91 bitrate=4365.7kbits/s speed=0.128x    frame=  434 fps=3.1 q=-0.0 size=    9549kB time=00:00:18.04 bitrate=4335.4kbits/s speed=0.128x    frame=  436 fps=3.1 q=-0.0 size=    9549kB time=00:00:18.12 bitrate=4315.6kbits/s speed=0.129x    frame=  438 fps=3.1 q=-0.0 size=    9549kB time=00:00:18.20 bitrate=4295.9kbits/s speed=0.129x    frame=  440 fps=3.1 q=-0.0 size=    9549kB time=00:00:18.29 bitrate=4276.2kbits/s speed=0.129x    frame=  442 fps=3.1 q=-0.0 size=    9549kB time=00:00:18.37 bitrate=4256.9kbits/s speed=0.129x    frame=  445 fps=3.1 q=-0.0 size=    9768kB time=00:00:18.50 bitrate=4325.1kbits/s speed=0.129x    frame=  447 fps=3.1 q=-0.0 size=    9768kB time=00:00:18.58 bitrate=4305.8kbits/s speed=0.129x    frame=  449 fps=3.1 q=-0.0 size=    9768kB time=00:00:18.66 bitrate=4286.4kbits/s speed=0.129x    frame=  451 fps=3.1 q=-0.0 size=    9768kB time=00:00:18.75 bitrate=4267.4kbits/s speed=0.129x    frame=  453 fps=3.1 q=-0.0 size=    9768kB time=00:00:18.83 bitrate=4248.6kbits/s speed=0.129x    frame=  455 fps=3.1 q=-0.0 size=    9994kB time=00:00:18.91 bitrate=4327.7kbits/s speed=0.129x    frame=  458 fps=3.1 q=-0.0 size=    9994kB time=00:00:19.04 bitrate=4299.2kbits/s speed=0.129x    frame=  460 fps=3.1 q=-0.0 size=    9994kB time=00:00:19.12 bitrate=4280.6kbits/s speed=0.13x    frame=  462 fps=3.1 q=-0.0 size=    9994kB time=00:00:19.20 bitrate=4262.1kbits/s speed=0.13x    frame=  464 fps=3.1 q=-0.0 size=    9994kB time=00:00:19.29 bitrate=4243.5kbits/s speed=0.13x    frame=  466 fps=3.1 q=-0.0 size=    9994kB time=00:00:19.37 bitrate=4225.4kbits/s speed=0.13x    frame=  469 fps=3.1 q=-0.0 size=   10223kB time=00:00:19.50 bitrate=4294.6kbits/s speed=0.13x    frame=  471 fps=3.1 q=-0.0 size=   10223kB time=00:00:19.58 bitrate=4276.4kbits/s speed=0.13x    frame=  473 fps=3.1 q=-0.0 size=   10223kB time=00:00:19.66 bitrate=4258.2kbits/s speed=0.13x    frame=  475 fps=3.1 q=-0.0 size=   10223kB time=00:00:19.75 bitrate=4240.3kbits/s speed=0.13x    frame=  477 fps=3.1 q=-0.0 size=   10223kB time=00:00:19.83 bitrate=4222.5kbits/s speed=0.13x    frame=  479 fps=3.1 q=-0.0 size=   10439kB time=00:00:19.91 bitrate=4293.6kbits/s speed=0.13x    frame=  482 fps=3.1 q=-0.0 size=   10439kB time=00:00:20.04 bitrate=4266.8kbits/s speed=0.13x    frame=  484 fps=3.1 q=-0.0 size=   10439kB time=00:00:20.12 bitrate=4249.2kbits/s speed=0.13x    frame=  486 fps=3.1 q=-0.0 size=   10439kB time=00:00:20.20 bitrate=4231.8kbits/s speed=0.131x    frame=  488 fps=3.1 q=-0.0 size=   10439kB time=00:00:20.29 bitrate=4214.3kbits/s speed=0.131x    frame=  490 fps=3.1 q=-0.0 size=   10439kB time=00:00:20.37 bitrate=4197.1kbits/s speed=0.131x    frame=  493 fps=3.1 q=-0.0 size=   10623kB time=00:00:20.50 bitrate=4244.8kbits/s speed=0.131x    frame=  495 fps=3.1 q=-0.0 size=   10623kB time=00:00:20.58 bitrate=4227.7kbits/s speed=0.131x    frame=  497 fps=3.1 q=-0.0 size=   10623kB time=00:00:20.66 bitrate=4210.5kbits/s speed=0.131x    frame=  499 fps=3.1 q=-0.0 size=   10623kB time=00:00:20.75 bitrate=4193.7kbits/s speed=0.131x    frame=  500 fps=3.1 q=-0.0 size=   10623kB time=00:00:20.79 bitrate=4185.2kbits/s speed=0.131x    frame=  500 fps=3.1 q=-0.0 Lsize=   10790kB time=00:00:20.79 bitrate=4251.1kbits/s speed=0.131x    
video:10779kB audio:0kB subtitle:0kB other streams:0kB global headers:3kB muxing overhead: 0.102093%
bench: utime=139.264s
bench: maxrss=243808kB
